<svg xmlns="http://www.w3.org/2000/svg" xml:space="preserve" id="Layer_1" x="0" y="0" version="1.1" viewBox="0 0 227 61.29">
  <path fill="#102c52" d="M2.55 27.27v2.86c2.87-1.79 8.06-2.98 13.98-2.98s11.11 1.19 13.98 2.98v-2.86c-2.87-1.8-8.06-2.99-13.98-2.99-5.92.01-11.11 1.2-13.98 2.99" />
  <path fill="#102c52" d="M3.98 31.11v2.73c3-1.36 7.51-2.23 12.55-2.23s9.55.87 12.55 2.23v-2.73c-3-1.36-7.51-2.23-12.55-2.23s-9.55.87-12.55 2.23M21.38 1.77A8.7 8.7 0 0 0 20.1.47c-.03-.03 0 .04-.04.01v.01l-.02.02.02.04c.12.27.21.56.26.85.95 5.37-5.98 5.5-8.44 10.2-2.64 5.07.89 10.77 1.62 11.86.06.08.19.05.19-.05v-.04c-.72-4.27-.41-5.53.96-7.65 1.73-2.67 5.45-4.23 5.21-5.74a.6.6 0 0 0-.05-.18c-.03-.07-.06-.15-.06-.15s.28.2.55.55c2.53 3.29 1.27 6.54.23 8.59-1.17 2.32-3.5 3.64-3.86 3.88-.06.04-.11.08-.16.12-.08.06-.01.18.08.16.13-.04.43-.12.96-.36 1.02-.46 4.29-1.76 5.86-5.7 1.45-3.64 2.32-9.67-2.03-15.12M37.1 27.21v-.64c.72-.18 1.34-.66 1.8-1.47.53-.93.94-4.56.94-4.56s1.84-13.36 2.05-14.87c.2-1.47-.73-1.84-1.29-2.06v-.64h5.36l5.37 18.56 4.99-18.56h5.56v.64c-.45.05-.8.24-1.04.54-.25.31-.37.71-.37 1.22 0 .2.01.39.02.58.02.19.04.38.07.57l2.35 16.51c.15 1.05.39 1.88.71 2.48s.7.95 1.15 1.05v.64h-6.52v-.64q.675-.045 1.08-.54c.27-.33.4-.76.4-1.28 0-.12-.01-.25-.02-.39s-.03-.29-.05-.45L57.2 6.78l-5.5 20.43h-2.06L43.56 6.76l-2.09 15.19s-.37 2.82.06 3.63c.31.57.86.87 1.54.99v.64zM68.1 27.21v-.64c.55-.01.94-.25 1.18-.71q.36-.69.36-2.25V6.62c0-1.08-.12-1.85-.36-2.3s-.64-.68-1.18-.71v-.64h16.92l.39 4.72-.71.1c-.42-1.24-1.21-1.72-2.23-2.18-1.16-.52-2.92-.79-5.8-.79h-1.04c-1.21 0-1.93.1-2.19.3-.25.2-.38.79-.38 1.64v5.85h3.5c1.84 0 2.96.04 3.76-.19.79-.23 1.4-.95 1.7-1.82h.56v5.77H82c-.3-.85-1.12-1.6-1.77-1.77-.95-.25-1.36-.18-3.17-.18h-3.98v8.53c0 1.07.18 1.73.53 1.98s1.27.37 2.74.37c1.77 0 3.04-.04 3.8-.12s2.33-.32 3.81-1.21c.87-.52 1.64-1.02 2.38-2.06l.71.38-1.41 4.91H68.1zM115.82 58.07v-.64c.55-.01.94-.25 1.18-.71q.36-.69.36-2.25V37.49c0-1.08-.12-1.85-.36-2.3s-.64-.68-1.18-.71v-.64h16.92l.39 4.72-.71.1c-.42-1.24-1.21-1.72-2.23-2.18-1.16-.52-2.92-.79-5.8-.79h-1.04c-1.21 0-1.93.1-2.19.3-.25.2-.38.79-.38 1.64v5.85h3.5c1.84 0 2.96.04 3.76-.19.79-.23 1.4-.95 1.7-1.82h.56v5.77h-.59c-.3-.85-1.12-1.6-1.77-1.77-.95-.25-1.36-.18-3.17-.18h-3.98v8.53c0 1.07.18 1.73.53 1.98s1.27.37 2.74.37c1.77 0 3.04-.04 3.8-.12s2.33-.32 3.81-1.21c.87-.52 1.64-1.02 2.38-2.06l.71.38-1.41 4.91zM108.31 24.61l1.31-4.67.74.13s.73 5.75 6.58 5.79c6.36.03 6.1-5.56 4.39-6.99-1.03-.86-2.36-1.71-4.79-2.67-.2-.08-.5-.2-.92-.36-2.27-.88-3.8-1.73-4.58-2.56a6.4 6.4 0 0 1-1.31-2 5.9 5.9 0 0 1-.44-2.28c0-1.87.69-3.43 2.08-4.68s3.12-1.87 5.22-1.87c1.15 0 2.34.2 3.56.6s2.46.99 3.72 1.78L122.77 9l-.67-.13c-.44-1.7-1.39-4.6-5.85-4.6s-4.98 4.31-3.53 5.88c.7.72 2.08 1.51 4.14 2.35.22.09.54.22.95.39 2.84 1.14 4.66 2.11 5.47 2.91.61.59 1.07 1.27 1.37 2.04s.45 1.63.45 2.6c0 2.11-.77 3.86-2.3 5.24q-2.295 2.07-5.88 2.07c-1.6 0-3.14-.27-4.61-.81-1.48-.53-2.81-1.31-4-2.33M157.35 55.51l1.31-4.67.74.13s.73 5.75 6.58 5.79c6.36.03 6.1-5.56 4.39-6.99-1.03-.86-2.36-1.71-4.79-2.67-.2-.08-.5-.2-.92-.36-2.27-.88-3.8-1.73-4.58-2.56a6.4 6.4 0 0 1-1.31-2 5.9 5.9 0 0 1-.44-2.28c0-1.87.69-3.43 2.08-4.68s3.12-1.87 5.22-1.87c1.15 0 2.34.2 3.56.6s2.46.99 3.72 1.78l-1.08 4.17-.67-.13c-.44-1.7-1.39-4.6-5.85-4.6s-4.98 4.31-3.53 5.88c.7.72 2.08 1.51 4.14 2.35.22.09.54.22.95.39 2.84 1.14 4.66 2.11 5.47 2.91.61.59 1.07 1.27 1.37 2.04s.45 1.63.45 2.6c0 2.11-.77 3.86-2.3 5.24q-2.295 2.07-5.88 2.07c-1.6 0-3.14-.27-4.61-.81a12.5 12.5 0 0 1-4.02-2.33M89.17 24.61l1.31-4.67.74.13s.73 5.75 6.58 5.79c6.36.03 6.1-5.56 4.39-6.99-1.03-.86-2.36-1.71-4.79-2.67-.2-.08-.5-.2-.92-.36-2.27-.88-3.8-1.73-4.58-2.56a6.4 6.4 0 0 1-1.31-2A5.9 5.9 0 0 1 90.15 9c0-1.87.69-3.43 2.08-4.68s3.12-1.87 5.22-1.87c1.15 0 2.34.2 3.56.6s2.46.99 3.72 1.78L103.63 9l-.67-.13c-.44-1.7-1.39-4.6-5.85-4.6s-4.98 4.31-3.53 5.88c.7.72 2.08 1.51 4.14 2.35.22.09.54.22.95.39 2.84 1.14 4.66 2.11 5.47 2.91.61.59 1.07 1.27 1.37 2.04s.45 1.63.45 2.6c0 2.11-.77 3.86-2.3 5.24q-2.295 2.07-5.88 2.07c-1.6 0-3.14-.27-4.61-.81-1.47-.53-2.81-1.31-4-2.33M128.02 27.21v-.62c.56-.03.96-.28 1.19-.73.24-.45.35-1.2.35-2.24v-17q0-1.59-.36-2.28c-.24-.46-.64-.7-1.18-.72v-.65h6.59v.64c-.55.02-.94.26-1.18.71s-.36 1.22-.36 2.3v16.99c0 1.06.12 1.82.35 2.26.24.44.63.68 1.19.7v.64zM84.63 58.07v-.62c.56-.03.96-.28 1.19-.73.24-.45.35-1.2.35-2.24V37.49q0-1.59-.36-2.28c-.24-.46-.64-.7-1.18-.72v-.64h6.59v.64c-.55.02-.94.26-1.18.71s-.36 1.22-.36 2.3v16.99c0 1.06.12 1.82.35 2.26.24.44.63.68 1.19.7v.64h-6.59zM175.81 58.07v-.62c.56-.03.96-.28 1.19-.73.24-.45.35-1.2.35-2.24V37.49q0-1.59-.36-2.28c-.24-.46-.64-.7-1.18-.72v-.64h6.59v.64c-.55.02-.94.26-1.18.71s-.36 1.22-.36 2.3v16.99c0 1.06.12 1.82.35 2.26.24.44.63.68 1.19.7v.64h-6.59zM212.4 58.07v-.62c.55-.02.95-.27 1.2-.73.25-.47.38-1.21.38-2.24l.01-6.16-5.63-10.17-.15-.26c-1.24-2.2-2.22-3.35-2.94-3.43v-.61h6.79v.61q-.54.06-.81.3c-.18.15-.26.37-.26.66 0 .22.1.56.3 1.04.2.47.51 1.07.91 1.79l4.4 7.99s4.38-7.84 4.66-8.37c.5-.94.58-1.27.58-1.68 0-.46-.15-.86-.44-1.19-.3-.33-.66-.51-1.1-.53v-.61h6v.61c-.56.07-.97.11-1.4.67-.41.55-.77 1.16-2.06 3.58l-5.42 9.61-.01 6.16c0 1.06.12 1.82.35 2.26.24.44.63.68 1.19.7v.64h-6.55zM181.21 4.33c.25-.46.66-.7 1.22-.72v-.64h-6.57v.64c.56.02.96.26 1.22.72.25.46.38 1.22.38 2.28v6.25h-11.01V6.62c0-1.08.12-1.85.36-2.3s.64-.68 1.18-.71v-.64h-6.52v.64c.55.02.94.26 1.18.71s.36 1.22.36 2.3v16.99q0 1.56-.36 2.25c-.24.46-.64.7-1.18.71v.64h6.52v-.64c-.55-.01-.94-.24-1.18-.69s-.36-1.2-.36-2.27v-8.93h11.01v8.93c0 1.03-.12 1.77-.37 2.23s-.65.7-1.21.72l-.02.64h6.57l-.02-.64c-.26-.02-.48-.08-.67-.17-.18-.09-.33-.23-.44-.4-.16-.25-.28-.56-.35-.92s-.11-.85-.12-1.46V6.62c0-1.06.13-1.83.38-2.29M151.71 26.56v.64h6.56l-.02-.64c-.42-.02-.81-.31-1.17-.85-.37-.55-.74-1.42-1.13-2.61l-6.53-20.13h-2.73l-6 18.39c-.59 1.85-1.17 3.17-1.73 3.95s-.88.97-1.72 1.25v.64h5.91v-.64c-.54-.11-1.01-.32-1.29-.7s-.45-.86-.2-1.61c.12-.38 1.53-4.69 1.53-4.69h8.04l1.24 4.09c.03.1.08.24.13.41.19.6.28 1.02.28 1.25 0 .31-.11.57-.32.8-.22.23-.5.38-.85.45m-4.37-19.77 3.33 10.96h-6.9zM104.17 54.25l-5.12-16.86c-.03-.1-.08-.24-.13-.41-.19-.6-.28-1.02-.28-1.25 0-.31.11-.57.32-.8.21-.22.5-.38.85-.45v-.64h-6.56l.02.64c.42.02.81.31 1.17.85.37.55.74 1.42 1.13 2.61l6.53 20.13h2.73l6-18.39c.59-1.85 1.17-3.17 1.73-3.95s.88-.97 1.72-1.25v-.64h-5.91v.64c.54.11 1.01.32 1.29.7s.45.86.2 1.61c-.12.38-5.69 17.46-5.69 17.46" />
  <path fill="#102c52" d="M20.07.46c-.02 0-.03.02-.03.03 0 .02.02.03.03.03.02 0 .03-.02.03-.03s-.01-.03-.03-.03M26.41 54.26s-.01 0 0 0V36.67c0-.82.93-1.42 1.43-1.63v-.07c-2.54-.91-5.85-1.52-9.52-1.67l-1.82 3.12-1.78-3.11c-3.64.15-6.92.76-9.44 1.67v.07c.5.22 1.43.82 1.43 1.63v18.33c0 1.64-1.14 2.34-1.99 2.75-.06.03-.13.06-.19.09h-.01c-.01 0-.02.01-.03.01-1.28.61-2.62 1.33-4.14 2.15l.25.54s7.03-2.41 15.92-2.96 13.99.45 13.99.45v-3.81c-1.46.02-2.83.02-4.1.03m-7.82-16.21c0-.4.13-.78.36-1.09.13-.19.29-.34.47-.46.35-.24.77-.39 1.24-.39.59 0 1.12.23 1.5.61l.02.02c.34.35.55.81.55 1.32v16.27c-1.51.04-2.87.09-4.13.17V41.55c-.01 0-.01-3.47-.01-3.5m-8.21 0c0-1.07.92-1.94 2.06-1.94.47 0 .91.15 1.26.4.17.12.32.27.45.44.23.31.36.69.36 1.1v16.81c-1.51.2-2.86.46-4.13.79zM55.76 33.84h-2.78v.64h.01c.8.24 1.37.75 1.7 1.53.17.4.23.92.25 1.57v11.86c0 2.7 0 7.13-6.38 7.13-4.58 0-5.87-2.3-6.24-4.58-.06-.44-.1-.9-.13-1.4-.01-.4-.03-13.11-.03-13.11 0-1.08.12-1.85.36-2.3s.64-.68 1.18-.71v-.64h-6.59v.64c.55.02.94.26 1.18.72q.36.69.36 2.28V49.4c0 .72-.01 1.72.15 2.79.05.42.11.78.19 1.09.23.95.61 1.76 1.13 2.42.28.35.6.66.94.95.94.82 2.26 1.45 4.08 1.76.02 0 .05.01.07.01.04.01.07.01.11.02.67.11 1.39.16 2.14.16h.16c9.07 0 9.1-6.43 9.1-9.17V37.46c.02-.59.08-1.07.23-1.44.32-.78.88-1.3 1.67-1.54v-.64zM76.81 33.84v.64h.01c.8.24 1.37.75 1.7 1.53.17.4.23.92.25 1.57v14.61L65.75 33.84h-5.11v.64c.21.01.4.04.58.1.29.11.52.32.68.62q.36.69.36 2.28v16.96c-.02.59-.08 1.07-.23 1.44-.19.46-.47.83-.82 1.11-.18.13-.39.25-.61.34l-.24.09v.65h5.83v-.64c-.78-.15-1.37-.62-1.77-1.39-.05-.1-.1-.22-.15-.33-.12-.37-.17-.84-.19-1.4V37.34l14.69 20.72h1.82v-20.6c.02-.59.08-1.07.23-1.44.32-.78.88-1.3 1.67-1.54v-.64zM203.02 33.84h-18.34l-1.28 4.88.74.31s.74-1.27 2.74-2.46c.99-.59 2.42-.89 4.3-.89.38 0 .63.06.74.19s.16.39.16.8v17.8c0 1.04-.12 1.79-.35 2.24-.24.45-.63.69-1.17.71l-.02.64h6.64l-.02-.64c-.55-.02-.94-.26-1.17-.71-.24-.45-.35-1.2-.35-2.24v-17.8c0-.41.05-.67.16-.8s.36-.19.74-.19c1.87 0 3.3.3 4.3.89 1.99 1.18 2.74 2.46 2.74 2.46l.74-.31zM153.06 55.1c-1.89-2.21-3.92-4.65-5.24-8.4 1.62-.29 2.97-.78 4.05-1.49 2.04-1.34 2.95-2.56 2.95-4.74s-1.23-3.89-3.23-5.13-4.79-1.86-8.36-1.86q-.48 0-1.44.03c-.64.02-1.35.06-2.13.1l-4.14.23v.64c.55.02.94.26 1.18.71s.36 1.22.36 2.3v16.99q0 1.56-.36 2.25c-.24.46-.64.7-1.18.71v.64h6.52v-.64c-.55-.01-.94-.24-1.18-.69s-.36-1.2-.36-2.27v-7.75c.59.09 1.19.16 1.79.21.42.03.84.06 1.27.07 1.72 3.83 3.86 6.77 6.53 9.09 2.76 2.39 5.64 3.92 8.65 4.59l.24-.84c-2.17-1.2-3.92-2.4-5.92-4.75m-11.27-9.92c-.46-.04-.89-.1-1.3-.17V37.6c0-1 .27-1.66.8-1.98s1.51-.48 2.93-.48c2.2 0 7.09.34 7.09 5.28 0 4.83-5.41 4.83-8.03 4.83-.53-.01-1.03-.03-1.49-.07M222.13 58.09c-.5 0-.93-.18-1.29-.55-.36-.36-.54-.8-.54-1.31s.18-.95.54-1.31.8-.54 1.31-.54.95.18 1.31.54.54.8.54 1.31c0 .52-.18.96-.55 1.32q-.525.54-1.32.54m0-.27c.52 0 .93-.19 1.24-.57.25-.31.37-.65.37-1.02s-.13-.71-.37-1.02c-.31-.38-.71-.57-1.21-.57s-.91.19-1.21.57c-.25.31-.37.65-.37 1.02 0 .43.16.81.46 1.12s.67.47 1.09.47m-.58-.58v-2h.63q.3 0 .45.12c.1.08.15.2.15.37q0 .18-.09.33a.8.8 0 0 1-.26.25l.61.93h-.38l-.54-.83h-.26v.83zm.3-1.08h.09c.18 0 .31-.03.4-.1s.13-.17.13-.3a.29.29 0 0 0-.11-.24c-.07-.05-.18-.08-.33-.08h-.18z" />
</svg>
